<svg width="18" height="19" viewBox="0 0 18 19" fill="none" xmlns="http://www.w3.org/2000/svg">
<path d="M15.7148 2.47754C15.5918 1.97656 15.1418 1.625 14.625 1.625H3.375C2.85855 1.625 2.40926 1.97656 2.2841 2.47754L0.130781 11.2209C0.0438398 11.5707 0 11.9328 0 12.2949V15.6875C0 16.6191 0.755508 17.375 1.6875 17.375H16.3125C17.2445 17.375 18 16.6195 18 15.6875V12.296C18 11.9332 17.9562 11.5718 17.8694 11.2198L15.7148 2.47754ZM12.375 12.875H5.625L4.5 10.625H2.56535L4.25391 3.875H13.7461L15.4346 10.625H13.5L12.375 12.875Z" fill="#1C4B82"/>
<path opacity="0.4" d="M13.7462 3.875H4.25398L2.56543 10.625H4.50008L5.62508 12.875H12.3751L13.5001 10.625H15.4347L13.7462 3.875ZM6.18758 5.5625H11.8126C12.122 5.5625 12.3751 5.81562 12.3751 6.125C12.3751 6.43564 12.1232 6.6875 11.8126 6.6875H6.18758C5.8782 6.6875 5.62508 6.43438 5.62508 6.125C5.62508 5.81562 5.8782 5.5625 6.18758 5.5625ZM12.9376 9.5H5.06258C4.7532 9.5 4.50008 9.24687 4.50008 8.9375C4.50008 8.62813 4.7532 8.375 5.06258 8.375H12.9376C13.247 8.375 13.5001 8.62813 13.5001 8.9375C13.5001 9.24687 13.247 9.5 12.9376 9.5Z" fill="#1C4B82"/>
</svg>
