<svg width="18" height="15" viewBox="0 0 18 15" fill="none" xmlns="http://www.w3.org/2000/svg">
<g clip-path="url(#clip0_1_419)">
<path d="M15.6966 2.07498L15.0469 1.45257C14.7853 1.18904 14.7853 0.761539 15.0469 0.498008C15.3112 0.234393 15.7387 0.234393 15.9778 0.49798L17.7778 2.29773C17.9297 2.42429 18 2.59613 18 2.77501C18 2.95416 17.9297 3.12685 17.7778 3.2281L15.9778 5.0281C15.7387 5.31498 15.3112 5.31498 15.0469 5.0281C14.7853 4.78904 14.7853 4.36154 15.0469 4.09716L15.6966 3.42498H10.8C10.4259 3.42498 10.125 3.14654 10.125 2.77501C10.125 2.40235 10.4259 2.10001 10.8 2.10001L15.6966 2.07498ZM7.17469 11.525C7.57406 11.525 7.84969 11.8512 7.84969 12.2C7.84969 12.5965 7.57406 12.875 7.17469 12.875L2.30484 12.9003L2.92781 13.5472C3.21469 13.8115 3.21469 14.239 2.92781 14.4781C2.68875 14.765 2.26125 14.765 1.99772 14.4781L0.197691 12.6781C0.0711 12.5769 -8.43675e-06 12.4053 7.50789e-10 12.2C7.50789e-10 12.0453 0.0711281 11.8737 0.197719 11.7472L1.99772 9.94716C2.26125 9.6856 2.68875 9.6856 2.92781 9.94716C3.21469 10.2115 3.21469 10.639 2.92781 10.8781L2.30456 11.5503L7.17469 11.525Z" fill="#1C4B82"/>
<path opacity="0.4" d="M9.3374 2.77482C9.3374 3.58228 9.99271 4.21229 10.7999 4.21229H13.5308C13.6265 4.72978 13.919 5.15166 14.3268 5.41603C14.3746 5.48353 14.4308 5.54822 14.4899 5.6101C15.0608 6.18104 15.989 6.18104 16.5599 5.6101L17.0999 5.06728V11.1001C17.0999 12.0929 16.2927 12.9001 15.2999 12.9001H8.49647C8.60334 12.6976 8.63709 12.4698 8.63709 12.1998C8.63709 11.4179 8.00709 10.7373 7.17459 10.7373H4.46896C4.37334 10.2704 4.08084 9.84853 3.67303 9.58416C3.62522 9.51666 3.56896 9.45197 3.5099 9.3901C2.93897 8.81916 2.01196 8.81916 1.44075 9.3901L0.899902 9.93291V3.9001C0.899902 2.90588 1.70568 2.1001 2.6999 2.1001H9.50334C9.39647 2.30204 9.3374 2.53154 9.3374 2.77482ZM2.6999 3.87478V5.67478C3.69271 5.67478 4.4999 4.89291 4.4999 3.87478H2.6999ZM15.2999 9.27478C14.3071 9.27478 13.4999 10.1073 13.4999 11.1001H15.2999V9.27478ZM8.9999 4.77479C7.48396 4.77479 6.2999 5.98416 6.2999 7.47478C6.2999 8.99072 7.48396 10.2001 8.9999 10.2001C10.4905 10.2001 11.6999 8.99072 11.6999 7.47478C11.6999 5.98416 10.4905 4.77479 8.9999 4.77479Z" fill="#1C4B82"/>
</g>
<defs>
<clipPath id="clip0_1_419">
<rect width="18" height="14.4" fill="white" transform="translate(0 0.300049)"/>
</clipPath>
</defs>
</svg>
