<svg width="11" height="12" viewBox="0 0 11 12" fill="none" xmlns="http://www.w3.org/2000/svg">
<path d="M5.5 0.5C2.46211 0.5 0 2.96211 0 6C0 9.03789 2.46211 11.5 5.5 11.5C8.53789 11.5 11 9.03789 11 6C11 2.96211 8.53789 0.5 5.5 0.5ZM5.5 10.4688C3.03574 10.4688 1.03125 8.46404 1.03125 6C1.03125 3.53596 3.03574 1.53125 5.5 1.53125C7.96426 1.53125 9.96875 3.53596 9.96875 6C9.96875 8.46404 7.96426 10.4688 5.5 10.4688ZM5.5 7.03125C5.78467 7.03125 6.01562 6.80029 6.01562 6.51562V3.76562C6.01562 3.48203 5.78574 3.25 5.5 3.25C5.21426 3.25 4.98438 3.48203 4.98438 3.76562V6.51562C4.98438 6.80137 5.21641 7.03125 5.5 7.03125ZM5.5 7.74238C5.12703 7.74238 4.82453 8.04488 4.82453 8.41785C4.82539 8.79082 5.12617 9.09375 5.5 9.09375C5.87383 9.09375 6.17547 8.79125 6.17547 8.41828C6.17461 8.04531 5.87383 7.74238 5.5 7.74238Z" fill="#FF8A00"/>
</svg>
