<svg width="18" height="17" viewBox="0 0 18 17" fill="none" xmlns="http://www.w3.org/2000/svg">
<g clip-path="url(#clip0_1_376)">
<path d="M13 3.67211V2.50024C13 1.94805 13.4469 1.50024 14 1.50024H15C15.5531 1.50024 16 1.94805 16 2.50024V6.29711L17.6594 7.74711C18.075 8.11274 18.1156 8.74399 17.7531 9.15961C17.3875 9.57524 16.7563 9.61586 16.3406 9.25336L9 2.82899L1.65844 9.25336C1.24281 9.61586 0.611251 9.57524 0.247407 9.15961C-0.116249 8.74399 -0.074124 8.11274 0.341564 7.74711L8.34063 0.747674C8.69063 0.417768 9.28125 0.417768 9.65938 0.747674L13 3.67211ZM11 8.50024C11 9.60336 10.1031 10.5002 9 10.5002C7.89688 10.5002 7 9.60336 7 8.50024C7 7.39711 7.89688 6.50024 9 6.50024C10.1031 6.50024 11 7.39711 11 8.50024ZM10 11.5002C11.3813 11.5002 12.5 12.619 12.5 14.0002C12.5 14.2752 12.275 14.5002 12 14.5002H6C5.725 14.5002 5.5 14.2752 5.5 14.0002C5.5 12.619 6.61875 11.5002 8 11.5002H10Z" fill="#1C4B82"/>
<path opacity="0.4" d="M9.00011 2.82886L16.0032 8.95636L16.0157 14.497C16.0189 15.6032 15.122 16.5001 14.0157 16.5001H4.00323C2.89823 16.5001 2.00292 15.6064 2.0023 14.5001L2.00073 8.95323L9.00011 2.82886ZM9.00011 10.5001C10.1032 10.5001 11.0001 9.60323 11.0001 8.50011C11.0001 7.39698 10.1032 6.50011 9.00011 6.50011C7.89698 6.50011 7.00011 7.39698 7.00011 8.50011C7.00011 9.60323 7.89698 10.5001 9.00011 10.5001ZM6.00011 14.5001H12.0001C12.2751 14.5001 12.5001 14.2751 12.5001 14.0001C12.5001 12.6189 11.3814 11.5001 10.0001 11.5001H8.00011C6.61886 11.5001 5.50011 12.6189 5.50011 14.0001C5.50011 14.2751 5.72511 14.5001 6.00011 14.5001Z" fill="#1C4B82"/>
</g>
<defs>
<clipPath id="clip0_1_376">
<rect width="18" height="16" fill="white" transform="translate(0 0.5)"/>
</clipPath>
</defs>
</svg>
