<svg xmlns="http://www.w3.org/2000/svg" fill="none" viewBox="0 0 200 200"><g id="page-not-found-error-404--interface-page-not-found-error-404"><g id="box back"><path id="vector" fill="#ffffff" d="M46.1541 65.223V131.163C46.1556 133.432 47.0576 135.607 48.6618 137.211C50.266 138.815 52.4413 139.717 54.7101 139.719H155.834C158.103 139.717 160.278 138.815 161.882 137.211C163.487 135.607 164.388 133.432 164.39 131.163V65.223H46.1541Z"></path><path id="vector_2" fill="#fccac2" d="M155.908 52.315H54.7841C52.496 52.3176 50.3025 53.2277 48.6846 54.8456C47.0668 56.4635 46.1567 58.657 46.1541 60.945V65.223H164.464V60.945C164.465 58.6686 163.566 56.4841 161.964 54.8675C160.361 53.251 158.184 52.3335 155.908 52.315V52.315Z"></path><path id="vector_3" fill="#ffb949" d="M70.7161 57.4779C70.2018 57.4746 69.7069 57.674 69.3386 58.033C68.9703 58.392 68.7584 58.8817 68.7486 59.3959C68.7389 59.9101 68.9322 60.4075 69.2866 60.7801C69.641 61.1528 70.128 61.3708 70.6421 61.3869C71.1564 61.3903 71.6513 61.1909 72.0196 60.8319C72.3878 60.4729 72.5998 59.9832 72.6095 59.469C72.6193 58.9548 72.426 58.4574 72.0716 58.0848C71.7172 57.7121 71.2301 57.494 70.7161 57.4779Z"></path><path id="vector_4" fill="#501200" d="M155.908 51.946H54.7841C53.6115 51.9439 52.45 52.1733 51.3662 52.6211C50.2824 53.0689 49.2977 53.7262 48.4685 54.5554C47.6393 55.3846 46.982 56.3693 46.5342 57.4531C46.0864 58.5368 45.857 59.6984 45.8591 60.871V131.089C45.857 132.262 46.0864 133.423 46.5342 134.507C46.982 135.591 47.6393 136.575 48.4685 137.405C49.2977 138.234 50.2824 138.891 51.3662 139.339C52.45 139.787 53.6115 140.016 54.7841 140.014H155.908C157.081 140.016 158.242 139.787 159.326 139.339C160.41 138.891 161.395 138.234 162.224 137.405C163.053 136.575 163.71 135.591 164.158 134.507C164.606 133.423 164.835 132.262 164.833 131.089V60.945C164.84 58.569 163.904 56.2873 162.231 54.6002C160.558 52.9132 158.284 51.9587 155.908 51.946V51.946ZM164.095 131.163C164.088 133.332 163.223 135.41 161.689 136.944C160.155 138.478 158.077 139.343 155.908 139.351H54.7841C52.615 139.343 50.5369 138.478 49.0032 136.944C47.4694 135.41 46.6045 133.332 46.5971 131.163V60.945C46.6045 58.7758 47.4694 56.6976 49.0032 55.1637C50.5369 53.6298 52.615 52.7646 54.7841 52.757H155.908C158.077 52.7646 160.155 53.6298 161.689 55.1637C163.223 56.6976 164.088 58.7758 164.095 60.945V131.163Z"></path><path id="vector_5" fill="#501200" d="M55.1531 57.4779C54.6388 57.4746 54.1439 57.674 53.7756 58.033C53.4074 58.392 53.1954 58.8817 53.1857 59.3959C53.1759 59.9101 53.3692 60.4075 53.7236 60.7801C54.078 61.1528 54.5651 61.3708 55.0791 61.3869C55.3377 61.395 55.5954 61.3517 55.8372 61.2595C56.079 61.1672 56.3 61.0279 56.4875 60.8496C56.6751 60.6713 56.8253 60.4575 56.9296 60.2206C57.0338 59.9838 57.0901 59.7286 57.095 59.4699C57.0999 59.2112 57.0533 58.9541 56.9581 58.7134C56.8629 58.4728 56.7208 58.2535 56.5402 58.0682C56.3596 57.8829 56.1439 57.7353 55.9058 57.634C55.6677 57.5327 55.4119 57.4796 55.1531 57.4779Z"></path><path id="vector_6" fill="#ff7449" d="M62.971 57.4779C62.4567 57.4746 61.9618 57.674 61.5935 58.033C61.2252 58.392 61.0133 58.8817 61.0035 59.3959C60.9938 59.9101 61.1871 60.4075 61.5415 60.7801C61.8959 61.1528 62.3829 61.3708 62.897 61.3869C63.4113 61.3903 63.9062 61.1909 64.2745 60.8319C64.6427 60.4729 64.8547 59.9832 64.8644 59.469C64.8742 58.9548 64.6809 58.4574 64.3265 58.0848C63.972 57.7121 63.485 57.494 62.971 57.4779V57.4779Z"></path><path id="vector_7" fill="#ff7449" d="M35.238 42.21C34.787 43.31 34.503 43.892 33.538 43.685C31.821 43.315 29.71 41.332 27.932 39.554C27.2384 38.972 26.597 38.3306 26.015 37.637C25.97 37.5725 25.9053 37.5243 25.8306 37.4995C25.7559 37.4748 25.6752 37.4749 25.6006 37.4997C25.5259 37.5245 25.4613 37.5728 25.4163 37.6374C25.3714 37.702 25.3485 37.7793 25.351 37.858C25.351 38.299 27.39 39.97 28.818 41.398C36.727 48.475 35.111 41.269 37.226 41.03C40.186 40.694 45.17 48.553 46.077 48.553C46.1539 48.5529 46.2291 48.5306 46.2937 48.4889C46.3582 48.4472 46.4094 48.3877 46.441 48.3177C46.4727 48.2476 46.4835 48.1699 46.4721 48.0939C46.4608 48.0179 46.4278 47.9467 46.377 47.889C43.517 45.031 37.65 36.3 35.238 42.21Z"></path><path id="vector_8" fill="#ff7449" d="M48.662 32.547C47.369 33.655 47.262 33.92 46.375 32.695C44.944 30.725 43.72 26.278 44.015 25.614C44.0363 25.571 44.0475 25.5237 44.0475 25.4757C44.0474 25.4277 44.0363 25.3803 44.0149 25.3374C43.9934 25.2945 43.9623 25.2571 43.924 25.2282C43.8857 25.1993 43.8411 25.1797 43.794 25.171C42.277 24.671 44.287 30.997 45.785 33.211C48.055 36.565 49.965 30.547 51.391 32.547C53.859 36.011 53.434 42.53 54.12 46.414C54.12 46.814 55.049 46.841 54.858 46.266C54.233 42.937 54.1 27.113 48.662 32.547Z"></path></g><g id="box front"><path id="vector_9" fill="#ffffff" d="M36.418 76.581V142.522C36.4196 144.791 37.3215 146.966 38.9257 148.57C40.5299 150.174 42.7053 151.076 44.974 151.078H146.1C148.369 151.076 150.544 150.174 152.148 148.57C153.752 146.966 154.654 144.791 154.656 142.522V76.581H36.418Z"></path><path id="vector_10" fill="#fccac2" d="M146.171 63.674H45.0479C42.7792 63.6756 40.6039 64.5775 38.9997 66.1818C37.3955 67.786 36.4935 69.9613 36.4919 72.23V76.508H154.8V72.23C154.769 69.9577 153.848 67.7882 152.234 66.1882C150.621 64.5881 148.443 63.6853 146.171 63.674V63.674Z"></path><path id="vector_11" fill="#ffb949" d="M60.98 68.837C60.4657 68.8336 59.9708 69.0331 59.6025 69.3921C59.2343 69.7511 59.0223 70.2408 59.0126 70.755C59.0028 71.2692 59.1961 71.7665 59.5505 72.1392C59.905 72.5119 60.392 72.7299 60.906 72.746C61.4203 72.7494 61.9152 72.55 62.2835 72.191C62.6518 71.8319 62.8637 71.3423 62.8735 70.8281C62.8832 70.3138 62.6899 69.8165 62.3355 69.4438C61.9811 69.0711 61.4941 68.8531 60.98 68.837Z"></path><path id="vector_12" fill="#501200" d="M146.171 63.305H45.0481C43.8754 63.3029 42.7139 63.5323 41.6301 63.9801C40.5463 64.4279 39.5616 65.0852 38.7324 65.9144C37.9032 66.7436 37.2459 67.7283 36.7981 68.8121C36.3504 69.8958 36.121 71.0574 36.1231 72.23V142.448C36.121 143.621 36.3504 144.782 36.7981 145.866C37.2459 146.95 37.9032 147.934 38.7324 148.764C39.5616 149.593 40.5463 150.25 41.6301 150.698C42.7139 151.146 43.8754 151.375 45.0481 151.373H146.171C147.344 151.375 148.505 151.146 149.589 150.698C150.673 150.25 151.658 149.593 152.487 148.764C153.316 147.934 153.973 146.95 154.421 145.866C154.869 144.782 155.098 143.621 155.096 142.448V72.23C155.088 69.8655 154.145 67.6001 152.473 65.9281C150.801 64.2561 148.536 63.3132 146.171 63.305V63.305ZM154.359 142.522C154.351 144.691 153.486 146.769 151.952 148.303C150.418 149.837 148.34 150.702 146.171 150.709H45.0481C42.8789 150.702 40.8007 149.837 39.2668 148.303C37.7329 146.769 36.8677 144.691 36.8601 142.522V72.3C36.8677 70.1309 37.7329 68.0527 39.2668 66.519C40.8007 64.9853 42.8789 64.1204 45.0481 64.113H146.171C148.34 64.1204 150.418 64.9853 151.952 66.519C153.486 68.0527 154.351 70.1309 154.359 72.3V142.522Z"></path><path id="vector_13" fill="#501200" d="M45.416 68.837C44.9018 68.834 44.4072 69.0336 44.0392 69.3927C43.6711 69.7518 43.4594 70.2414 43.4498 70.7555C43.4402 71.2696 43.6335 71.7667 43.9879 72.1393C44.3422 72.5119 44.8291 72.7299 45.343 72.746C45.6017 72.7541 45.8595 72.7108 46.1013 72.6186C46.3431 72.5263 46.5642 72.3869 46.7518 72.2086C46.9393 72.0302 47.0896 71.8163 47.1939 71.5794C47.2981 71.3425 47.3543 71.0873 47.3591 70.8285C47.364 70.5697 47.3174 70.3125 47.222 70.0719C47.1267 69.8312 46.9845 69.6119 46.8037 69.4267C46.623 69.2414 46.4072 69.0939 46.169 68.9927C45.9308 68.8915 45.6748 68.8385 45.416 68.837V68.837Z"></path><path id="vector_14" fill="#ff7449" d="M53.2351 68.837C52.7208 68.8336 52.2259 69.0331 51.8577 69.3921C51.4894 69.7511 51.2774 70.2408 51.2677 70.755C51.258 71.2692 51.4512 71.7665 51.8057 72.1392C52.1601 72.5119 52.6471 72.7299 53.1611 72.746C53.6754 72.7494 54.1703 72.55 54.5386 72.191C54.9069 71.8319 55.1189 71.3423 55.1286 70.8281C55.1383 70.3138 54.945 69.8165 54.5906 69.4438C54.2362 69.0711 53.7492 68.8531 53.2351 68.837Z"></path><path id="vector_15" fill="#ff7449" d="M98.154 111.027C101.695 107.487 105.235 103.946 108.776 100.479C107.227 98.857 105.676 97.379 104.055 95.759C100.514 99.299 97.048 102.84 93.434 106.454L82.886 95.906L78.165 100.627C81.632 104.094 85.173 107.634 88.787 111.175C85.246 114.715 81.706 118.255 78.165 121.722C79.714 123.345 81.265 124.822 82.886 126.443C86.426 122.902 89.893 119.362 93.507 115.748C97.048 119.288 100.588 122.828 103.981 126.295C105.604 124.746 107.081 123.195 108.781 121.648L98.154 111.027Z"></path></g><g id="hand 2"><path id="vector_16" fill="#ffffff" d="M67.7651 163.986L67.6181 163.396C63.7601 158.743 56.6321 167.896 54.2671 167.896C54.4161 169.525 54.5971 170.746 55.3001 177.78H55.3741C55.9641 179.108 57.7341 178.68 58.9141 178.665C63.1471 178.617 72.6661 178.856 69.9781 175.272C69.5551 175.061 69.6021 175.03 69.5361 174.83C70.7811 174.581 72.0491 173.417 71.4531 172.03C70.9741 171.311 70.7161 171.43 70.0531 171.366C72.3771 170.591 72.5201 168.387 71.0861 167.604V167.53C79.9251 165.605 82.6351 161.012 67.7651 163.986Z"></path><path id="vector_17" fill="#501200" d="M90.852 130.426C84.052 120.226 66.841 119.226 58.693 131.089C56.9485 133.626 55.8181 136.535 55.391 139.584C54.964 142.634 55.252 145.741 56.2323 148.66C57.2127 151.579 58.8585 154.23 61.0396 156.403C63.2208 158.577 65.8776 160.213 68.8 161.183L68.168 163.218C64.715 159.16 59.412 164.541 54.638 167.305C54.37 164.217 54.359 164.134 53.975 164.134C46.26 163.453 33.037 157.302 26.02 152.406C17.447 146.629 15.767 143.559 15.767 144.956C12.585 153.812 11.267 157.948 7.50599 168.633C4.77699 176.746 4.77699 176.746 5.21999 176.968C23.439 186.076 42.866 186.679 55.892 182.057C56.253 181.877 56.112 181.75 55.819 178.812C55.819 178.412 55.805 179.033 57.367 179.033C58.017 179.033 57.367 178.959 63.342 178.959C59.264 192.702 59.102 192.587 59.58 192.826C60.162 192.826 59.91 192.91 64.08 178.886C67.673 178.736 72.36 177.927 70.201 175.05C69.901 174.75 70.606 175.192 71.601 173.796C71.7286 173.593 71.8147 173.367 71.8541 173.13C71.8935 172.894 71.8856 172.652 71.8307 172.419C71.7758 172.185 71.675 171.965 71.5343 171.771C71.3936 171.577 71.2157 171.413 71.011 171.288C71.3124 171.13 71.5733 170.905 71.7734 170.63C71.9734 170.354 72.1072 170.037 72.1643 169.701C72.2214 169.366 72.2003 169.022 72.1026 168.696C72.0049 168.37 71.8332 168.071 71.601 167.822C73.38 167.377 78.461 165.894 78.461 164.06C78.461 162.226 75.366 162.66 74.182 162.66C72.338 162.808 70.568 163.029 68.798 163.324L69.388 161.407C87.715 166.75 102.261 145.549 90.852 130.426ZM77.8 164.06C77.8 165.76 70.107 167.302 67.621 168.19C67.264 168.309 67.221 168.854 67.921 168.854C68.9046 168.481 69.9156 168.185 70.945 167.969C72.045 168.578 72.112 170.241 69.986 170.993C67.812 171.763 67.7 171.641 67.7 172.1C67.7348 172.189 67.7957 172.265 67.8746 172.318C67.9535 172.372 68.0467 172.4 68.142 172.4C68.7463 172.279 69.3374 172.099 69.907 171.864C71.538 171.196 72.596 174.314 67.847 174.907C67.397 174.907 67.447 175.645 67.921 175.645C68.75 175.645 69.652 174.751 70.06 176.383C70.304 178.576 61.193 178.374 58.996 178.374C58.05 178.374 56.353 178.841 55.825 177.784C55.825 177.684 54.792 169.199 54.792 168.343C60.619 165.013 64.57 160.334 67.478 163.843C67.678 163.843 66.266 164.125 63.938 164.949C63.448 165.122 63.787 165.799 64.159 165.613C68.587 164.043 77.8 162.482 77.8 164.06ZM93.95 145.03C93.5525 147.889 92.5129 150.621 90.909 153.021C89.3051 155.421 87.1787 157.426 84.6892 158.887C82.1997 160.348 79.4117 161.226 76.5343 161.456C73.657 161.685 70.765 161.261 68.0753 160.213C65.3856 159.166 62.9679 157.523 61.0037 155.408C59.0394 153.293 57.5796 150.76 56.7336 148.001C55.8877 145.241 55.6776 142.325 56.1191 139.473C56.5606 136.62 57.6423 133.905 59.283 131.53C66.42 121.11 81.705 120.674 89.451 129.612C92.319 132.482 94.785 138.724 93.95 145.03Z"></path><path id="vector_18" fill="#ffffff" d="M55.005 178.59C52.7022 179.07 50.3428 179.219 47.998 179.033C47.3344 176.12 46.8905 173.161 46.67 170.182C49.0296 170.622 51.4247 170.844 53.825 170.846C53.8742 170.849 53.9235 170.841 53.9695 170.824C54.0156 170.806 54.0575 170.779 54.0923 170.744C54.1272 170.71 54.1543 170.668 54.1718 170.622C54.1893 170.576 54.1969 170.526 54.194 170.477C54.194 169.739 53.677 170.551 46.594 169.444C46.209 163.862 47.215 163.044 46.446 162.658C46.3513 162.661 46.2594 162.691 46.181 162.744C46.1025 162.797 46.0408 162.871 46.003 162.958C45.7439 165.062 45.6699 167.185 45.782 169.302C41.9216 168.566 38.1429 167.452 34.5 165.978C34.9336 163.563 35.5012 161.175 36.2 158.823C36.2293 158.735 36.2224 158.639 36.181 158.556C36.1396 158.473 36.0669 158.41 35.979 158.381C35.891 158.352 35.7951 158.359 35.7122 158.4C35.6293 158.441 35.5663 158.514 35.537 158.602C34.8493 160.932 34.2818 163.295 33.837 165.683C29.854 164.134 26.019 162.216 23.068 160.741C26.253 151.61 26.092 153.429 26.092 152.848C26.281 152.472 25.706 152.137 25.429 152.548C25.4292 152.558 25.4275 152.568 25.4239 152.577C25.4203 152.586 25.4148 152.594 25.4079 152.601C25.401 152.608 25.3927 152.613 25.3836 152.617C25.3745 152.621 25.3647 152.622 25.355 152.622C24.544 154.466 23.437 157.195 22.404 160.367C14.881 156.442 14.377 156.167 12.742 155.351C12.442 155.199 11.921 155.563 12.373 156.015C12.384 156.015 18.395 159.136 22.183 161.031C20.783 165.161 19.528 169.365 18.569 172.906C17.292 172.457 9.16896 169.433 8.09496 168.628C7.83396 168.106 3.74996 168.55 18.421 173.57C17.7347 176.058 17.2662 178.601 17.021 181.17C17.016 181.22 17.0221 181.27 17.0389 181.317C17.0556 181.364 17.0827 181.407 17.118 181.442C17.1533 181.477 17.196 181.504 17.243 181.521C17.2901 181.538 17.3403 181.544 17.39 181.539C18.212 181.539 17.407 180.102 19.16 173.868C23.5216 175.437 27.9815 176.718 32.511 177.703C32.425 179.896 32.5253 182.092 32.811 184.268C32.811 184.535 33.011 184.563 33.253 184.563C34.011 184.563 33.053 183.528 33.253 177.851C37.9359 178.865 42.7003 179.457 47.489 179.621C48.367 183.354 48.402 183.678 48.889 183.678C49.469 183.484 48.87 183.135 48.225 179.695C50.5491 179.871 52.8865 179.697 55.159 179.178C55.626 179.5 55.527 178.416 55.005 178.59ZM32.505 177.115C28.0312 176.106 23.623 174.825 19.305 173.28C20.19 169.739 21.444 165.609 22.845 161.48C25.869 162.955 29.705 164.873 33.688 166.422C33.1131 169.964 32.7195 173.533 32.509 177.115H32.505ZM33.242 177.337C33.4125 173.8 33.8067 170.277 34.422 166.789C50.252 173.121 44.022 165.068 47.183 179.107C42.4979 178.886 37.8376 178.294 33.246 177.337H33.242Z"></path></g><g id="hand 1"><path id="vector_19" fill="#fccac2" d="M131.42 70.754C130.69 72.216 130.291 74.677 131.936 74.442C133.446 74.254 134.577 72.318 136.214 70.681C143.096 62.901 140.787 64.698 140.787 65.665C139.616 69.373 139.533 73.172 143.295 72.303L143.959 72.156C144.614 73.903 146.441 73.912 147.868 72.894C149.168 75.164 152.823 73.328 154.359 70.902C155.639 68.88 154.506 67.73 152.441 69.132L152.22 68.984C155.192 65.684 158.559 61.823 160.02 57.702C158.32 55.288 155.845 52.663 154.165 50.545C149.494 52.382 135.358 62.164 131.42 70.754Z"></path><path id="vector_20" fill="#ffb949" d="M165.275 7.17401C164.185 25.435 156.34 42.502 151.775 47.52C151.856 47.626 162.466 60.989 162.544 61.092C173.944 56.135 187.857 42.383 194.998 22.221C188.908 19.207 165.275 7.17401 165.275 7.17401Z"></path><path id="vector_21" fill="#501200" d="M159.372 57.751C157.272 63.869 152.272 67.837 150.772 69.988C150.336 70.612 150.905 70.962 151.261 70.607C151.592 69.945 153.748 68.374 154.361 68.984C155.018 69.642 153.401 71.437 153.181 71.713C149.268 75.905 145.851 72.579 148.607 67.067C149.307 65.9 148.458 66.033 148.091 66.55C147.122 68.1146 146.749 69.9758 147.04 71.793C147.379 73.693 145.611 73.31 145.14 73.115C143.558 72.46 143.921 69.054 144.181 67.362C144.181 67.222 144.993 65.002 144.697 64.562C144.641 64.5025 144.565 64.4644 144.484 64.4541C144.403 64.4437 144.321 64.4618 144.251 64.5052C144.182 64.5487 144.129 64.6148 144.103 64.6924C144.077 64.77 144.078 64.8543 144.107 64.931C144.107 65.85 142.897 67.764 143.359 70.999C143.6 72.687 140.975 72.355 140.64 70.684C140.381 68.9279 140.637 67.1342 141.378 65.521C141.69 64.771 142.189 63.586 142.189 63.455C142.189 63.066 141.689 62.899 141.452 63.382C141.352 63.573 141.236 64.034 140.936 64.635C136.336 70.198 134.759 71.973 134.666 72.085C133.041 73.71 132.855 74.02 132.011 74.15C131.094 74.38 131.216 72.743 131.568 71.864C133.601 63.734 153.086 50.99 154.433 50.99C154.973 50.72 154.668 50.139 154.212 50.252C154.325 50.252 153.545 50.252 149.344 53.052C143.954 56.646 139.367 59.781 134.518 65.518C133.008 67.3077 131.788 69.3236 130.904 71.492C130.904 71.599 129.825 74.737 131.863 74.737C133.695 74.737 134.885 72.601 136.657 70.828C137.838 69.428 139.165 67.878 140.272 66.476C138.415 73.903 143.557 72.814 143.886 72.156C144.92 74.482 147.546 73.615 147.546 73.007C148.037 73.4492 148.629 73.7647 149.27 73.926C152.027 74.779 156.892 69.744 155.097 68.173C154.89 67.9872 154.632 67.8671 154.356 67.8277C154.08 67.7884 153.799 67.8316 153.548 67.952C155.785 65.268 158.255 63.132 160.13 58.171C160.379 57.51 159.526 57.3 159.372 57.751Z"></path></g></g></svg>